<?xml version="1.0" standalone="no"?>
<!DOCTYPE svg PUBLIC "-//W3C//DTD SVG 20010904//EN"
 "http://www.w3.org/TR/2001/REC-SVG-20010904/DTD/svg10.dtd">
<svg version="1.0" xmlns="http://www.w3.org/2000/svg"
 width="599.000000pt" height="600.000000pt" viewBox="0 0 599.000000 600.000000"
 preserveAspectRatio="xMidYMid meet">

<g transform="translate(0.000000,600.000000) scale(0.100000,-0.100000)"
fill="#000000" stroke="none">
<path d="M2815 4473 c-77 -9 -236 -47 -314 -75 -500 -176 -873 -618 -967
-1143 -24 -135 -24 -386 0 -510 113 -592 530 -1041 1101 -1185 407 -103 833
-30 1191 206 125 82 321 279 407 410 316 477 332 1090 43 1578 -225 380 -609
640 -1046 711 -87 14 -332 19 -415 8z m401 -228 c389 -68 730 -322 909 -678
208 -411 177 -888 -82 -1281 -68 -103 -240 -271 -351 -344 -381 -248 -858
-275 -1262 -72 -354 178 -599 504 -677 898 -23 118 -22 357 1 467 58 268 161
460 351 651 193 196 409 310 674 358 105 20 328 20 437 1z"/>
<path d="M2924 3946 l-34 -34 0 -489 0 -490 278 -156 c153 -85 289 -158 304
-162 14 -4 41 0 61 9 68 28 87 125 34 173 -12 12 -120 76 -239 143 l-218 122
0 415 c0 454 0 457 -60 488 -49 25 -88 19 -126 -19z"/>
</g>
</svg>
